# xmcd CD database file
#
# Track frame offsets:
#	150
#	11028
#	22617
#	37345
#	51013
#	62428
#	72634
#	86684
#	99956
#	112127
#
# Disc length: 1623 seconds
#
# Revision: 0
# Processed by: cddbd v1.5.1PL2 Copyright (c) Steve Scherf et al.
# Submitted via: CDex 1.51
#
DISCID=8006550a
DTITLE=Country Hit Parade - George Jones
DYEAR=2006
DGENRE=Country
TTITLE0=Tender Years
TTITLE1=She Thinks I Still Care
TTITLE2=He Stopped Loving Her Today
TTITLE3=Golden Ring ( with Tammy Wynette)
TTITLE4=White Lightning
TTITLE5=Walk Through This World With Me
TTITLE6=A Good Year For The Roses
TTITLE7=The Window Up Above
TTITLE8=Two Story House (with Tammy Wynette)
TTITLE9=The Race Is On
EXTD=YEAR: 2006
EXTT0=
EXTT1=
EXTT2=
EXTT3=
EXTT4=
EXTT5=
EXTT6=
EXTT7=
EXTT8=
EXTT9=
PLAYORDER=
